<?xml version="1.0" standalone="no"?>
<!DOCTYPE svg PUBLIC "-//W3C//DTD SVG 1.0//EN" "http://www.w3.org/TR/2001/REC-SVG-20010904/DTD/svg10.dtd">
<svg xmlns="http://www.w3.org/2000/svg" xmlns:xlink="http://www.w3.org/1999/xlink" id="body_1" width="298" height="298">

<g transform="matrix(2.5913043 0 0 2.5913043 0 0)">
	<g transform="matrix(0.2994792 0 0 0.2994792 0 0)">
		<g transform="matrix(0.1875 0 0 0.1875 0 0)">
            <path transform="matrix(1 0 0 1 595 1025)"  d="M0 0L49 0L63 2L81 8L93 15L103 25L111 41L113 50L114 60L114 76L111 100L102 132L92 160L83 180L75 197L63 219L51 240L42 253L35 268L45 260L55 251L62 244L70 237L83 224L91 217L102 207L114 198L128 187L144 174L155 166L169 155L188 141L206 128L230 112L252 98L262 91L281 80L304 67L334 51L357 41L380 32L384 31L402 31L412 35L420 42L425 52L426 55L426 67L419 81L411 91L404 98L397 106L385 118L378 126L371 133L364 141L354 152L345 163L334 176L319 196L309 209L301 219L275 258L266 272L257 287L242 313L228 339L220 355L208 380L199 403L194 421L190 445L191 454L195 462L199 464L211 463L226 458L245 449L260 443L278 437L283 437L285 441L284 445L279 451L269 458L253 467L228 479L214 484L204 486L182 486L175 483L170 478L165 467L161 452L161 420L166 396L170 382L177 361L189 334L212 288L222 271L231 255L247 229L257 214L267 198L278 182L289 167L309 137L321 120L335 100L343 89L343 87L330 88L310 94L279 106L259 117L243 127L221 141L204 153L188 165L170 179L158 190L147 199L132 213L118 225L103 239L95 246L86 255L79 263L38 304L31 312L19 326L10 336L1 347L-12 363L-27 383L-39 400L-50 417L-58 431L-62 441L-62 459L-67 464L-79 470L-91 473L-108 473L-117 470L-121 466L-121 456L-115 441L-101 416L-88 395L-76 377L-59 351L-51 339L-38 319L-14 283L2 258L8 248L21 227L30 211L39 196L47 180L59 155L68 133L73 117L77 97L78 88L78 67L75 49L70 37L66 32L59 27L44 22L28 19L4 19L-19 22L-41 27L-68 37L-93 49L-115 62L-131 73L-152 89L-162 97L-173 107L-181 114L-188 121L-196 128L-198 131L-200 131L-202 135L-216 149L-223 157L-233 169L-242 180L-252 194L-266 218L-279 243L-288 268L-293 288L-294 295L-294 328L-291 340L-285 351L-275 364L-264 371L-252 375L-240 377L-216 377L-184 372L-166 366L-143 353L-129 343L-120 335L-111 324L-102 311L-96 298L-94 287L-95 273L-100 263L-99 260L-97 259L-88 260L-82 265L-77 278L-78 289L-82 304L-87 316L-96 331L-108 345L-122 357L-141 369L-160 379L-179 385L-198 388L-215 389L-236 389L-255 387L-268 383L-278 378L-291 367L-300 358L-310 344L-315 333L-319 317L-322 296L-322 286L-318 257L-312 235L-300 208L-288 186L-278 172L-269 160L-260 149L-248 135L-239 125L-224 109L-214 100L-203 91L-191 80L-177 69L-158 55L-143 46L-114 31L-84 20L-53 10L-36 6L-11 1L0 0z" stroke="none" fill="#DD0F6E" fill-rule="nonzero" />
            <path transform="matrix(1 0 0 1 1514 1108)"  d="M0 0L11 0L19 3L27 10L29 14L28 19L18 32L-3 59L-13 73L-25 89L-37 106L-51 126L-61 139L-73 155L-90 180L-103 200L-113 215L-122 229L-131 244L-142 264L-150 285L-152 294L-152 307L-148 318L-139 322L-135 323L-122 323L-103 317L-87 308L-65 294L-49 281L-36 269L-29 261L-15 246L-8 238L-1 231L6 223L16 213L23 205L48 180L56 173L64 165L72 158L82 148L90 141L107 125L119 113L130 104L143 92L151 85L162 75L175 66L181 64L191 65L199 69L203 76L203 84L197 96L182 116L174 132L166 156L159 187L147 247L141 273L138 290L138 296L157 292L174 286L189 278L200 270L212 261L226 249L238 237L247 226L256 217L263 216L266 219L265 225L258 236L247 248L240 256L226 270L215 279L202 289L187 298L173 304L154 310L136 314L128 318L115 327L100 334L84 338L73 339L52 339L41 337L28 330L18 321L12 314L4 300L-3 282L-8 267L-13 269L-21 276L-33 288L-41 295L-48 302L-63 313L-81 325L-98 334L-111 338L-118 339L-140 339L-151 337L-165 330L-175 321L-181 309L-182 303L-182 287L-180 272L-179 270L-185 273L-191 278L-198 286L-210 298L-218 305L-234 318L-245 326L-259 334L-277 342L-293 346L-316 346L-326 343L-335 335L-340 325L-343 314L-343 288L-342 283L-349 287L-357 294L-364 302L-371 309L-381 317L-391 324L-407 332L-421 336L-433 336L-444 332L-457 323L-463 316L-467 308L-468 303L-468 272L-474 276L-500 302L-508 309L-522 321L-540 333L-552 339L-560 342L-569 343L-583 340L-597 333L-607 325L-614 316L-618 308L-618 280L-613 262L-603 241L-591 223L-581 210L-571 198L-564 190L-557 183L-550 175L-547 174L-545 170L-535 161L-527 154L-513 142L-500 133L-481 122L-466 115L-451 110L-435 107L-411 107L-401 111L-396 115L-389 126L-386 131L-386 133L-370 134L-362 138L-356 145L-356 152L-362 162L-377 185L-390 204L-405 227L-418 248L-431 270L-437 284L-439 292L-439 307L-435 314L-430 318L-422 319L-410 315L-396 307L-380 294L-369 284L-361 277L-347 263L-341 256L-339 256L-337 252L-329 242L-320 227L-310 209L-299 191L-289 176L-279 163L-268 150L-256 139L-247 135L-242 134L-234 134L-225 137L-217 143L-214 147L-214 152L-223 164L-234 177L-244 190L-255 204L-264 216L-276 231L-288 248L-298 263L-310 283L-315 296L-316 300L-316 316L-312 326L-307 329L-305 330L-296 330L-282 326L-261 315L-244 303L-229 292L-216 282L-204 271L-196 264L-180 248L-171 237L-164 228L-147 196L-137 177L-126 157L-117 144L-103 121L-91 103L-81 87L-61 59L-48 42L-38 31L-31 23L-19 11L-8 3L0 0zM139 120L128 127L111 143L103 150L92 161L84 168L61 191L54 199L44 209L34 222L27 231L21 243L19 251L19 262L22 272L28 283L43 298L54 303L58 304L79 304L93 300L101 295L107 287L111 279L121 249L130 212L137 168L141 128L141 120zM-417 132L-436 137L-452 144L-466 152L-479 162L-495 174L-512 188L-525 200L-535 209L-542 217L-553 229L-561 239L-575 258L-585 279L-590 298L-590 309L-586 320L-580 325L-577 326L-564 326L-553 322L-541 315L-530 307L-516 295L-506 286L-489 269L-482 261L-471 248L-458 231L-445 213L-438 203L-425 185L-418 177L-402 153L-395 143L-396 138L-406 133L-410 132z" stroke="none" fill="#DD0F6E" fill-rule="nonzero" />
            <path transform="matrix(1 0 0 1 96 877)"  d="M0 0L335 0L336 1L336 84L332 86L4 86L1 85L0 83L-1 73L-1 5L0 0z" stroke="none" fill="#DD1170" fill-rule="nonzero" />
            <path transform="matrix(1 0 0 1 1621 877)"  d="M0 0L329 0L333 1L334 3L334 82L331 85L317 86L0 86L-2 85L-2 6L0 0z" stroke="none" fill="#DD106F" fill-rule="nonzero" />
            <path transform="matrix(1 0 0 1 213 695)"  d="M0 0L217 0L219 6L218 80L216 83L0 85L-2 81L-2 9L-1 1L0 0z" stroke="none" fill="#5C5096" fill-rule="nonzero" />
            <path transform="matrix(1 0 0 1 1638 695)"  d="M0 0L200 0L202 2L201 82L200 83L-16 83L-17 82L-18 59L-18 40L-17 2L-16 1L0 0z" stroke="none" fill="#5A4E95" fill-rule="nonzero" />
            <path transform="matrix(1 0 0 1 1088 623)"  d="M0 0L26 0L39 2L47 6L52 11L56 16L59 24L59 39L55 49L50 56L52 60L60 67L66 74L72 86L74 99L73 114L69 125L63 136L55 144L40 152L26 155L-12 155L-13 154L-13 63L-31 63L-33 61L-25 50L-15 48L-14 47L-13 2L-12 1L0 0zM3 13L0 16L0 49L22 50L35 49L41 45L45 38L46 34L46 26L42 20L36 15L29 13zM1 63L0 64L-1 118L-1 143L1 144L22 144L35 142L45 136L53 128L59 116L60 111L60 92L57 83L50 75L40 68L32 64L28 63z" stroke="none" fill="#61507C" fill-rule="nonzero" />
            <path transform="matrix(1 0 0 1 894 620)"  d="M0 0L15 0L26 4L34 10L41 18L46 29L46 157L40 159L35 158L34 150L34 115L-21 115L-22 159L-26 160L-33 158L-34 156L-35 115L-49 115L-48 110L-44 104L-35 102L-34 31L-29 19L-23 11L-13 4L0 0zM0 13L-8 16L-14 21L-20 30L-22 38L-22 94L-21 102L-10 103L33 103L34 102L34 32L28 23L20 17L9 13z" stroke="none" fill="#614E7A" fill-rule="nonzero" />
            <path transform="matrix(1 0 0 1 981 823)"  d="M0 0L15 0L17 52L34 43L37 42L52 42L62 46L70 53L74 61L76 75L76 137L74 139L61 139L60 138L59 95L58 74L54 64L49 60L42 58L34 59L26 63L19 71L17 76L16 134L15 139L4 140L-1 138L-2 130L-2 14L-1 1L0 0z" stroke="none" fill="#DD0F6F" fill-rule="nonzero" />
            <path transform="matrix(1 0 0 1 1314 864)"  d="M0 0L15 0L27 3L37 9L44 16L49 26L51 38L51 63L49 73L43 84L39 89L30 95L19 99L12 100L-4 100L-12 98L-24 92L-32 83L-36 74L-38 62L-38 38L-36 28L-31 18L-25 11L-11 3L0 0zM0 16L-10 21L-16 30L-20 41L-21 47L-21 58L-18 67L-12 76L-4 83L2 85L12 84L22 80L27 76L32 67L34 57L34 43L32 31L26 23L21 19L12 16z" stroke="none" fill="#DD1270" fill-rule="nonzero" />
            <path transform="matrix(1 0 0 1 682 864)"  d="M0 0L11 0L24 3L32 9L37 15L39 20L40 27L40 96L38 98L30 99L25 97L24 92L17 95L8 99L4 100L-11 100L-21 97L-29 91L-33 85L-34 82L-34 65L-31 57L-26 51L-14 45L0 42L17 41L20 40L20 27L17 21L12 18L8 17L-7 17L-24 23L-29 22L-30 13L-27 8L-20 4L0 0zM2 55L-8 58L-14 63L-16 67L-16 74L-12 82L-8 85L2 86L11 83L19 76L22 68L22 61L20 57L13 55z" stroke="none" fill="#DD1472" fill-rule="nonzero" />
            <path transform="matrix(1 0 0 1 1309 623)"  d="M0 0L50 0L55 2L54 12L53 13L-2 14L-3 15L-4 46L-3 49L33 50L33 62L32 63L-4 63L-5 143L52 143L54 145L54 155L23 156L-13 156L-16 155L-17 146L-18 63L-34 63L-34 59L-30 51L-23 49L-18 49L-17 3L-16 1L0 0z" stroke="none" fill="#67547F" fill-rule="nonzero" />
            <path transform="matrix(1 0 0 1 1504 864)"  d="M0 0L9 0L20 3L29 9L35 18L38 34L38 96L33 99L25 98L21 95L20 91L19 32L16 24L9 18L5 17L-3 17L-11 21L-16 25L-20 31L-22 37L-23 79L-24 97L-25 98L-36 98L-39 96L-40 93L-40 4L-39 3L-27 3L-24 5L-23 10L-19 9L-9 3L0 0z" stroke="none" fill="#DD1270" fill-rule="nonzero" />
            <path transform="matrix(1 0 0 1 679 621)"  d="M0 0L15 0L28 5L37 12L42 17L41 21L35 25L30 23L19 16L12 14L0 14L-10 19L-15 25L-19 35L-19 44L-16 52L-8 61L5 67L21 71L35 78L44 87L51 101L52 105L52 122L48 135L42 144L37 150L27 156L16 159L9 160L0 160L-12 157L-20 152L-29 144L-35 133L-35 126L-32 123L-27 124L-19 134L-12 141L-4 145L5 147L16 146L26 142L32 137L37 129L39 122L40 112L37 100L31 92L26 88L14 83L-3 78L-15 72L-23 65L-29 54L-30 49L-30 28L-24 16L-18 9L-9 3L0 0z" stroke="none" fill="#604E7A" fill-rule="nonzero" />
            <path transform="matrix(1 0 0 1 545 822)"  d="M0 0L17 0L24 3L26 7L26 14L24 16L4 16L0 22L-1 29L-1 42L2 43L21 45L22 49L21 57L20 58L13 59L-1 59L-2 122L-3 139L-4 140L-18 140L-20 138L-21 60L-31 59L-36 57L-37 52L-35 46L-23 40L-20 19L-15 9L-8 3L0 0z" stroke="none" fill="#DD1270" fill-rule="nonzero" />
            <path transform="matrix(1 0 0 1 849 863)"  d="M0 0L14 1L25 5L29 10L29 18L26 22L21 21L10 17L1 16L-6 19L-9 22L-10 31L-7 36L1 41L19 49L29 56L34 64L35 67L35 76L32 86L27 93L18 99L1 102L-10 102L-22 100L-30 95L-31 92L-31 85L-29 78L-23 79L-10 84L-1 85L10 81L13 76L13 67L3 61L-13 53L-22 47L-27 41L-29 36L-29 23L-24 13L-17 6L-6 1L0 0z" stroke="none" fill="#DE1572" fill-rule="nonzero" />
            <path transform="matrix(1 0 0 1 1483 623)"  d="M0 0L11 0L12 1L12 143L53 144L53 154L44 155L-1 155L-2 154L-2 1L0 0z" stroke="none" fill="#5D5980" fill-rule="nonzero" />
            <path transform="matrix(1 0 0 1 516 624)"  d="M0 0L10 0L11 1L11 152L9 154L0 154L-2 153L-2 27L-1 1L0 0z" stroke="none" fill="#715883" fill-rule="nonzero" />
            <path transform="matrix(1 0 0 1 1316 1170)"  d="M0 0L21 0L31 3L37 7L41 15L41 26L37 34L29 40L20 43L7 43L-2 39L-10 32L-13 27L-14 18L-12 8L-7 3L0 0z" stroke="none" fill="#DD0F6F" fill-rule="nonzero" />
            <path transform="matrix(1 0 0 1 1163 866)"  d="M0 0L12 0L16 1L16 70L15 95L12 97L2 97L-2 95L-3 91L-3 58L-2 1L0 0z" stroke="none" fill="#DE1A75" fill-rule="nonzero" />
            <path transform="matrix(1 0 0 1 1088 623)"  d="M0 0L26 0L39 2L47 6L52 11L56 16L58 20L57 28L52 29L47 28L46 32L44 24L38 17L29 14L10 13L10 12L30 12L36 13L33 7L20 3L0 1L0 0z" stroke="none" fill="#775598" fill-rule="nonzero" />
            <path transform="matrix(1 0 0 1 1164 828)"  d="M0 0L8 0L15 3L17 7L17 14L14 20L11 22L0 22L-6 17L-7 9L-4 3L0 0z" stroke="none" fill="#DF227A" fill-rule="nonzero" />
            <path transform="matrix(1 0 0 1 1496 767)"  d="M0 0L40 0L40 10L31 11L0 11L0 9L2 8L0 5L0 0z" stroke="none" fill="#DC106F" fill-rule="nonzero" />
            <path transform="matrix(1 0 0 1 1483 623)"  d="M0 0L5 0L1 1L0 4L0 155L-2 154L-2 1L0 0z" stroke="none" fill="#DC1773" fill-rule="nonzero" />
            <path transform="matrix(1 0 0 1 429 730)"  d="M0 0L1 0L1 42L0 42L-1 35L-2 35L-2 12L-1 11L0 0z" stroke="none" fill="#545079" fill-rule="nonzero" />
            <path transform="matrix(1 0 0 1 1125 636)"  d="M0 0L4 1L9 6L10 19L9 19L6 7L0 2L0 0z" stroke="none" fill="#795D87" fill-rule="nonzero" />
		</g>
	</g>
</g>
</svg>
